<svg width="40" height="40" viewBox="0 0 40 40" fill="none" xmlns="http://www.w3.org/2000/svg">
<path d="M19.78 15.8894C13.7289 15.6535 9.3556 11.9488 7.92534 10.1259C5.83497 13.5572 8.19122 16.4881 9.63065 17.5247C9.05855 17.589 7.68697 17.1583 7.07269 16.9349C7.27073 20.7094 10.2358 22.1713 11.6935 22.4304C10.9014 22.6663 9.69483 22.6538 9.19057 22.618C10.2028 25.6633 13.1513 26.4247 14.499 26.4247C11.9686 28.6979 7.77865 28.9803 6 28.8373C11.5285 32.0542 20.055 32.6975 26.1336 26.9608C30.1016 22.6053 31.0116 19.8284 31.2495 14.5223C32.8118 13.4285 33.7341 12.1722 34 11.6807C33.3179 12.0667 31.6254 12.3777 30.8644 12.4849C32.2727 11.7558 33.0648 10.1616 33.2849 9.45572C32.4707 10.0348 30.5252 10.5906 29.6542 10.7961C28.25 9.4913 27.2809 9.14774 25.336 9C21.2377 9.24126 19.2024 12.2437 19.78 15.8894Z" fill="#F8FBFF"/>
</svg>
