<svg width="180" height="180" viewBox="0 0 180 180" fill="none" xmlns="http://www.w3.org/2000/svg">
<g clip-path="url(#clip0_8942_17)">
<g filter="url(#filter0_d_8942_17)">
<path fill-rule="evenodd" clip-rule="evenodd" d="M63.599 9.00547C62.164 11.1906 60.4536 14.4909 58.9771 17.9234C58.6638 18.6516 58.3074 19.4731 58.1849 19.7487C57.0362 22.3349 54.0063 30.6025 53.1567 33.469C52.5578 35.4894 51.7028 39.0711 51.3321 41.1122C51.2758 41.4223 51.1384 42.1553 51.0268 42.7411C50.7029 44.4407 50.0953 48.1654 49.8311 50.0711C49.6974 51.0359 49.5238 52.2665 49.4454 52.8056C49.367 53.3448 49.2963 54.2187 49.2883 54.7477C49.2749 55.6435 49.2923 55.7122 49.5435 55.7481C49.7202 55.7734 50.6228 55.2542 52.1619 54.2419C54.3308 52.8154 55.558 52.0143 61.4296 48.1916C62.594 47.4335 64.8416 45.9675 66.4243 44.9338C68.0071 43.9001 70.0937 42.5384 71.0612 41.9076C72.1134 41.2217 72.8993 40.7881 73.0168 40.8285C73.1249 40.8657 73.5966 41.269 74.065 41.7247C75.3481 42.973 80.6889 48.7553 80.7324 48.9436C80.8293 49.3618 80.3748 49.178 78.4954 48.0391C77.383 47.3649 76.3285 46.7284 76.1522 46.6246C75.631 46.3178 73.8709 45.2124 73.414 44.905C73.1816 44.7485 72.8667 44.6206 72.7142 44.6206C72.2687 44.6206 69.3008 46.726 56.8796 55.8534C43.9713 65.3388 42.446 66.4398 42.3499 66.3404C42.1486 66.1324 41.9459 56.5556 42.0307 51.2614C42.181 41.8643 42.8519 34.6861 44.2377 27.6426C44.7418 25.0801 45.5069 22.0466 46.0863 20.3126C46.5355 18.9682 46.5849 18.6824 46.3676 18.6844C46.1422 18.6866 44.5655 21.8966 43.6911 24.1342C41.2293 30.4332 39.4765 37.577 38.2494 46.3121C36.7254 57.1614 36.0184 67.4031 36.3559 73.7463C36.5108 76.6563 36.6241 77.261 37.0151 77.261C37.2656 77.261 38.5805 76.2232 47.4026 69.0633C53.9423 63.7557 55.5484 62.4499 58.8122 59.7855C65.8205 54.0647 72.3015 48.9697 72.7537 48.8255C73.1036 48.714 74.2555 49.1915 77.4214 50.7609C80.1714 52.124 80.601 52.4785 79.354 52.3557C78.6404 52.2855 75.3726 51.8335 74.2731 51.653C73.8259 51.5796 73.5007 51.5853 73.338 51.6697C72.994 51.8481 70.8852 53.6781 63.4879 60.2174C62.3907 61.1874 60.3147 63.0216 58.8746 64.2935C57.4345 65.5654 56.195 66.6634 56.12 66.7336C56.0451 66.8038 54.5902 68.1016 52.8867 69.6177C45.6713 76.0397 40.016 81.1514 36.2755 84.6322L34.4213 86.3577C34.1526 86.6077 34 86.9582 34 87.3252C34 88.5354 34.8618 95.2465 35.6279 100.003C38.7181 119.186 44.3554 135.36 51.5222 145.605C52.6582 147.229 55.0262 150.33 55.2238 150.453C55.5173 150.635 55.4174 150.314 54.8896 149.379C51.9942 144.251 48.3845 135.123 46.587 128.383C45.7136 125.108 45.4786 124.142 44.8951 121.429C44.5522 119.834 44.4797 119.444 44.1052 117.169C43.9634 116.307 43.7942 115.292 43.7294 114.913C43.4376 113.209 42.8134 107.35 42.6062 104.37C42.447 102.081 42.4451 92.7402 42.6036 91.5142C42.6682 91.0149 42.8055 90.4422 42.9087 90.2414C43.1785 89.7172 46.4161 86.0763 53.4508 78.3859C54.6509 77.074 56.5817 74.9591 57.7414 73.6862C58.9012 72.4134 60.1372 71.0618 60.4881 70.6828C60.8388 70.3037 61.8817 69.1479 62.8054 68.1141C63.729 67.0804 64.5154 66.2065 64.5527 66.172C64.7008 66.0352 69.4881 60.5612 71.7415 57.9519C73.2376 56.2195 74.275 55.1234 74.5114 55.025C75.0681 54.7932 80.404 55.1269 80.5744 55.4041C80.6654 55.5519 80.572 55.5931 78.3022 56.407C77.1564 56.8178 76.1038 57.2302 75.963 57.3234C75.8222 57.4166 74.0563 60.1082 72.0388 63.3047C70.0212 66.5012 68.1894 69.3985 67.9681 69.743C67.4969 70.4768 59.0181 84.092 57.4341 86.6584C56.8387 87.6232 55.278 90.1279 53.966 92.2243C52.5684 94.4576 51.5805 96.1618 51.5805 96.3397C51.5805 96.716 52.3903 104.054 52.6487 106.017C53.745 114.353 54.7668 119.515 57.0011 128.007C57.7644 130.908 59.8891 138.097 60.7043 140.537C63.8914 150.076 67.6748 158.513 73.4451 168.949C73.9691 169.896 74.3978 170.728 74.3978 170.797C74.3978 170.866 74.4539 170.922 74.5225 170.922C74.591 170.922 74.6472 170.886 74.6472 170.842C74.6472 170.798 74.2584 169.741 73.7832 168.493C72.0763 164.009 68.8775 154.518 68.1616 151.814C68.1068 151.607 67.9146 150.959 67.7341 150.373C67.5539 149.787 67.2999 148.913 67.17 148.431C66.9529 147.624 66.5462 146.151 65.9249 143.92C65.7209 143.188 64.9504 140.165 64.7433 139.284C64.7109 139.146 64.5162 138.329 64.3106 137.467C62.9835 131.906 61.7149 125.43 61.1196 121.178C60.5625 117.2 59.944 109.939 59.6144 103.511C59.3248 97.8605 59.2879 98.1586 60.6143 95.4293C61.2171 94.1889 61.9766 92.6101 62.302 91.921C62.9885 90.4665 66.9085 82.2996 70.7215 74.3791C75.6047 64.2356 77.3989 60.6031 77.6761 60.2989C78.1508 59.7781 80.5289 58.2634 80.8088 58.3035C80.973 58.3272 81.172 58.5479 81.3505 58.9047C81.6996 59.6028 82.7517 61.9165 82.7517 61.9861C82.7517 62.0143 81.8641 63.3765 80.7795 65.0131C77.9815 69.2348 77.9744 69.2487 77.9103 70.5959C77.7976 72.965 78.5828 78.9242 79.8938 85.6489C81.7934 95.3935 83.6317 101.857 86.3093 108.207L86.3239 108.242C86.4013 108.426 86.6581 108.435 86.7487 108.258C87.0386 107.69 87.7499 107.059 88.4808 106.721C89.3407 106.324 90.6961 106.363 91.6243 106.811C92.2723 107.124 92.9518 107.745 93.3041 108.345C93.3818 108.477 93.4846 108.548 93.5329 108.502C93.8382 108.21 95.6923 103.112 96.7148 99.7521C97.2259 98.0729 98.5893 92.8713 98.8332 91.6703C98.9032 91.3258 99.0441 90.6774 99.1464 90.2294C99.3281 89.4338 100.46 83.7046 100.705 82.3356C100.825 81.6704 101.087 80.0754 101.334 78.514C101.807 75.527 102.134 71.8559 102.053 70.4523C101.983 69.2383 101.908 69.0957 99.1938 65.0124C98.1054 63.3752 97.2151 62.0136 97.2151 61.9863C97.2151 61.9591 97.4326 61.4659 97.6987 60.8905C97.9647 60.3152 98.3065 59.5525 98.4583 59.1955C98.9408 58.0612 99.0014 58.0481 100.249 58.8097C102.375 60.1075 102.212 59.8795 104.793 65.1618C106.058 67.7504 107.389 70.4886 107.751 71.2466C108.112 72.0047 108.927 73.6962 109.56 75.0056C110.193 76.315 111.09 78.1757 111.552 79.1404C112.015 80.1053 113.165 82.5016 114.109 84.4657C115.053 86.4297 116.175 88.7697 116.603 89.6656C117.03 90.5615 118.071 92.7323 118.914 94.4896C120.132 97.0241 120.461 97.8227 120.506 98.3522C120.663 100.177 119.931 111.619 119.275 117.607C118.489 124.774 116.496 134.847 114.168 143.419C113.906 144.384 113.58 145.596 113.443 146.113C113.109 147.374 111.991 151.298 111.766 152.002C111.666 152.312 111.378 153.242 111.125 154.069C109.791 158.43 107.26 165.756 105.737 169.669C105.375 170.599 105.228 171.228 105.444 170.922C105.517 170.819 106.059 169.86 106.648 168.792C110.861 161.151 113.866 154.852 116.63 147.867C118.154 144.015 120.414 137.367 120.995 135.024C121.029 134.886 121.168 134.407 121.302 133.959C121.521 133.23 122.465 129.882 122.963 128.07C123.343 126.684 123.879 124.59 124.198 123.246C124.378 122.488 124.606 121.529 124.705 121.116C125.215 118.978 125.567 117.173 126.454 112.157C126.784 110.294 127.47 105.084 127.898 101.193C127.974 100.504 128.115 99.294 128.211 98.5044C128.515 96.0152 128.738 96.6113 125.626 91.6023C123.223 87.7323 122.224 86.1296 120.242 82.9621C119.472 81.7328 113.898 72.7798 113.259 71.7478C110.611 67.47 104.366 57.6621 104.151 57.4457C104.004 57.2965 103.054 56.8855 102.015 56.5211C100.987 56.1604 99.9909 55.8105 99.8023 55.7437C99.6136 55.677 99.4594 55.5505 99.4594 55.4627C99.4594 55.2497 99.9494 55.1835 102.848 55.0054C105.063 54.8693 105.332 54.8744 105.611 55.0581C105.781 55.17 106.808 56.2927 107.893 57.5529C112.281 62.6483 116.718 67.6401 121.903 73.3147C125.143 76.8616 131.045 83.333 132.814 85.2801C135.338 88.0571 136.916 89.9441 137.142 90.4548C137.348 90.9206 137.395 91.4682 137.486 94.4986C137.583 97.6908 137.494 102.85 137.299 105.352C137.173 106.978 136.867 110.159 136.747 111.092C136.685 111.574 136.568 112.504 136.487 113.159C135.843 118.359 134.172 126.134 132.689 130.826C132.139 132.569 130.982 136.062 130.884 136.277C130.821 136.415 130.625 136.941 130.449 137.447C129.39 140.491 126.543 146.822 125.036 149.485C123.796 151.677 125.385 150.077 127.572 146.931C132.121 140.388 135.898 132.545 138.808 123.596C141.332 115.838 143.61 105.723 144.91 96.5135C145.302 93.7394 145.801 89.5025 145.913 87.9983L145.931 87.7617C145.975 87.1724 145.756 86.5939 145.333 86.1813L145.174 86.0266C144.263 85.137 139.293 80.555 137.239 78.7103C136.519 78.0636 134.976 76.6766 133.81 75.6278C131.073 73.1661 128.04 70.4493 126.944 69.4776C126.469 69.056 125.039 67.7874 123.767 66.6584C117.612 61.1969 113.729 57.7666 110.735 55.1477C109.437 54.0119 108.346 53.0533 108.312 53.0176C108.076 52.7724 106.832 51.7773 106.629 51.6709C106.467 51.5863 106.138 51.5787 105.694 51.6494C103.764 51.9561 100.602 52.39 100.301 52.3896C100.101 52.3894 99.9581 52.3205 99.9581 52.2246C99.9581 52.0458 105.806 49.1139 106.642 48.8736C107.085 48.7464 107.203 48.7573 107.515 48.9539C108.544 49.6033 115.326 55.0201 126.329 63.9796C133.513 69.8297 138.799 74.1064 141.005 75.8521C142.899 77.3523 143.231 77.4974 143.405 76.9049C143.575 76.3249 143.726 71.0958 143.655 68.2394C143.614 66.5855 143.47 63.6817 143.336 61.7865C143.003 57.0712 142.963 56.6459 142.355 51.3241C142.168 49.6848 141.749 46.513 141.535 45.113C141.425 44.3942 141.287 43.496 141.229 43.117C141.171 42.738 141.067 42.1459 140.999 41.8014C140.931 41.4568 140.809 40.8084 140.728 40.3604C139.691 34.6101 138.124 28.8795 136.344 24.3221C135.556 22.3053 134.18 19.4261 133.768 18.9343L133.689 18.8387C133.626 18.7638 133.504 18.807 133.502 18.9047C133.5 19.0607 133.553 19.2863 133.619 19.4059C133.891 19.8946 135.161 24.56 135.555 26.5149C137.285 35.1059 137.908 42.2279 137.918 53.5168C137.925 60.5313 137.786 66.2527 137.606 66.3641C137.518 66.4187 136.887 65.9737 133.248 63.2901C132.64 62.8422 131.031 61.6644 129.672 60.6726C128.313 59.681 126.782 58.5533 126.269 58.1667C125.755 57.7801 125.213 57.3792 125.063 57.2758C124.638 56.9827 120.858 54.2285 120.718 54.1102C120.65 54.0521 119.612 53.2883 118.411 52.4127C117.211 51.5371 115.967 50.6238 115.646 50.3832C115.325 50.1426 114.552 49.5793 113.928 49.1313C113.303 48.6834 112.444 48.0608 112.017 47.7478C109.829 46.1412 107.554 44.6206 107.339 44.6206C107.113 44.6206 106.405 45.0348 101.365 48.1163C99.6107 49.1885 99.1356 49.3727 99.2343 48.9419C99.2775 48.7534 104.895 42.6832 106.045 41.5821C106.471 41.1737 106.911 40.8616 107.059 40.8616C107.203 40.8616 108.287 41.4976 109.469 42.275C110.65 43.0523 112.697 44.3914 114.018 45.2508C122.94 51.0551 125.134 52.4848 127.808 54.2413C129.329 55.2399 130.255 55.7723 130.427 55.7476C130.791 55.6955 130.827 55.0946 130.578 53.2662C130.469 52.4737 130.322 51.3742 130.251 50.8229C129.98 48.7389 129.343 44.8569 128.811 42.052C127.771 36.5716 126.852 33.1743 125.168 28.5823C125.029 28.2033 124.681 27.2447 124.395 26.4522C123.426 23.7657 121.688 19.4498 120.77 17.4533C120.57 17.0177 120.406 16.6353 120.406 16.6032C120.406 16.5713 119.868 15.4616 119.209 14.1373C118.172 12.0529 116.456 9.00848 115.874 8.22147C115.401 7.58145 115.583 8.337 116.395 10.3791C119.871 19.1251 122.192 28.0825 123.39 37.371C123.644 39.3429 123.745 40.1851 124.086 43.1796C124.459 46.4587 124.507 46.837 124.589 47.1665C124.647 47.4005 124.624 47.5025 124.512 47.5025C124.366 47.5025 122.84 46.5399 116.251 42.294C115.028 41.5063 113.976 40.8616 113.913 40.8616C113.85 40.8616 113.798 40.8052 113.798 40.7363C113.798 40.6674 113.746 40.611 113.683 40.611C113.619 40.611 113.24 40.3927 112.841 40.1261C112.442 39.8593 111.694 39.3699 111.18 39.0383C110.665 38.7067 110.011 38.2766 109.726 38.0824C109.44 37.888 109.184 37.7291 109.156 37.7291C109.128 37.7291 108.636 37.419 108.063 37.04C107.489 36.661 106.916 36.3508 106.788 36.3508C106.555 36.3508 102.673 40.2574 99.5344 43.6495C97.5674 45.7757 97.4436 45.8242 97.8547 44.3073C97.9854 43.8249 98.1054 43.1201 98.1213 42.7411C98.1466 42.1382 98.0925 41.958 97.688 41.3002C97.0607 40.28 95.7137 38.7496 94.5221 37.7029C93.499 36.8044 92.5181 36.1426 92.3941 36.2671C92.3547 36.3066 92.5259 36.6176 92.7745 36.9579C93.6081 38.099 94.2226 39.8104 94.2226 40.9905C94.2226 41.6954 93.9265 42.742 93.619 43.1236C93.4779 43.2987 93.2554 43.3873 93.0326 43.3572L91.6991 43.1771C90.209 42.9759 89.8599 42.9678 88.7793 43.1086C88.1044 43.1966 87.295 43.297 86.9811 43.3319C86.6415 43.3697 86.3168 43.1822 86.1797 42.8692L86.116 42.7237C85.3927 41.0711 85.8774 38.5927 87.2715 36.815C88.358 35.4293 86.2757 36.7781 84.4762 38.6257C83.2142 39.921 82.3165 41.077 81.9726 41.849C81.7541 42.3398 81.7436 42.479 81.8744 43.1646C81.9548 43.5864 82.1009 44.2095 82.1991 44.5494C82.2973 44.8892 82.3776 45.2134 82.3776 45.2699C82.3776 45.6155 81.8457 45.1715 80.436 43.6495C77.3891 40.3599 73.4206 36.3508 73.2112 36.3508C73.043 36.3508 68.1462 39.406 66.7797 40.3635C66.6014 40.4885 66.0964 40.8137 65.6575 41.0865C65.2185 41.3592 63.597 42.3935 62.054 43.3851C60.511 44.3766 58.8104 45.469 58.2746 45.8127C57.7389 46.1562 56.9381 46.677 56.495 46.9699C55.5733 47.579 55.2506 47.6509 55.3704 47.2205C55.4136 47.0654 55.6439 45.2471 55.882 43.1796C56.5509 37.3719 56.5608 37.2951 57.0624 33.9702C57.6293 30.2119 59.2848 22.7969 60.0557 20.5632C60.1152 20.3909 60.2614 19.9116 60.3809 19.4981C61.1226 16.9286 62.4824 13.0481 63.5203 10.5393C64.37 8.48535 64.5189 8.03252 64.3441 8.0344C64.2846 8.03503 63.9493 8.47207 63.599 9.00547Z" fill="url(#paint0_linear_8942_17)"/>
</g>
</g>
<defs>
<filter id="filter0_d_8942_17" x="18" y="-2" width="143.936" height="195" filterUnits="userSpaceOnUse" color-interpolation-filters="sRGB">
<feFlood flood-opacity="0" result="BackgroundImageFix"/>
<feColorMatrix in="SourceAlpha" type="matrix" values="0 0 0 0 0 0 0 0 0 0 0 0 0 0 0 0 0 0 127 0" result="hardAlpha"/>
<feOffset dy="6"/>
<feGaussianBlur stdDeviation="8"/>
<feComposite in2="hardAlpha" operator="out"/>
<feColorMatrix type="matrix" values="0 0 0 0 0 0 0 0 0 0 0 0 0 0 0 0 0 0 0.7 0"/>
<feBlend mode="normal" in2="BackgroundImageFix" result="effect1_dropShadow_8942_17"/>
<feBlend mode="normal" in="SourceGraphic" in2="effect1_dropShadow_8942_17" result="shape"/>
</filter>
<linearGradient id="paint0_linear_8942_17" x1="90" y1="15.5" x2="52.008" y2="114.407" gradientUnits="userSpaceOnUse">
<stop stop-color="#EA1D22"/>
<stop offset="1" stop-color="#640204"/>
</linearGradient>
<clipPath id="clip0_8942_17">
<rect width="180" height="180" fill="white"/>
</clipPath>
</defs>
</svg>
